<?xml version="1.0" standalone="no"?>
<!DOCTYPE svg PUBLIC "-//W3C//DTD SVG 20010904//EN"
 "http://www.w3.org/TR/2001/REC-SVG-20010904/DTD/svg10.dtd">
<svg version="1.0" xmlns="http://www.w3.org/2000/svg"
 width="256.000000pt" height="256.000000pt" viewBox="0 0 256.000000 256.000000"
 preserveAspectRatio="xMidYMid meet">
<metadata>
Created by potrace 1.11, written by Peter Selinger 2001-2013
</metadata>
<g transform="translate(0.000000,256.000000) scale(0.100000,-0.100000)"
fill="#000000" stroke="none">
<path d="M252 2337 l-32 -33 2 -565 3 -564 48 93 c26 51 45 98 41 103 -3 6 9
27 28 47 25 26 49 74 82 164 l48 127 -19 33 c-12 20 -31 37 -51 43 -55 16 -36
20 64 14 75 -5 100 -10 114 -25 10 -10 50 -91 88 -179 39 -88 96 -214 128
-280 l59 -120 3 145 c2 80 0 173 -3 208 -6 54 -10 65 -31 74 -40 19 -27 26 29
16 28 -6 91 -8 139 -6 48 2 84 0 82 -4 -3 -4 -16 -8 -29 -8 -56 0 -55 6 -55
-234 0 -170 3 -227 14 -248 l14 -27 -99 -3 c-93 -3 -119 2 -84 16 8 3 15 10
15 16 0 6 -36 10 -92 10 -84 1 -91 2 -74 15 19 14 18 17 -20 107 l-40 93 -99
0 -99 0 -40 -94 c-39 -90 -40 -94 -21 -107 17 -12 9 -14 -63 -14 l-82 0 0 -55
0 -55 473 0 c259 0 504 -2 542 -5 58 -4 63 -3 25 4 -71 14 -115 36 -162 83
-23 23 -46 42 -50 41 -13 -5 -40 100 -40 157 0 91 26 156 88 217 29 29 59 53
68 53 8 0 -8 -22 -37 -51 -49 -48 -49 -49 -8 -16 64 53 128 72 236 71 106 0
178 -27 237 -88 59 -60 73 -99 73 -196 0 -91 -16 -136 -67 -191 -24 -25 -27
-26 -81 -16 l-57 10 20 22 c29 31 60 117 60 166 0 102 -61 204 -136 229 -52
18 -127 8 -173 -23 -59 -39 -83 -87 -89 -172 -8 -120 31 -202 123 -261 70 -45
73 -67 8 -64 -27 2 -274 2 -551 1 l-503 -1 3 -82 3 -83 538 0 c423 0 537 -3
537 -12 0 -8 -15 -13 -42 -13 -24 0 -267 0 -540 0 l-498 1 0 -239 0 -238 33
-32 33 -32 457 0 c251 0 457 -3 457 -7 0 -5 -62 -8 -138 -9 -333 -1 -584 -7
-547 -14 53 -8 31 -17 -70 -29 -56 -6 42 -8 333 -7 226 0 412 0 412 -1 0 -1
-6 -32 -14 -70 -29 -141 -29 -143 -9 -143 15 0 22 16 37 90 l18 90 72 0 c71 0
130 -8 710 -101 169 -27 329 -50 354 -52 l46 -2 38 195 c93 474 119 623 116
663 l-3 42 -88 14 -87 14 -1 636 c-1 403 -5 609 -10 561 -5 -41 -10 -85 -11
-97 -4 -40 -17 -25 -21 25 -2 26 -5 -91 -6 -260 -2 -170 -5 -312 -6 -318 -1
-5 -4 -128 -5 -272 -2 -145 -5 -253 -7 -242 -4 21 -11 22 -171 27 -258 9 -280
25 -34 26 l202 1 0 633 0 633 -33 32 -33 32 -414 0 -414 0 54 -57 55 -58 -60
58 -61 57 -560 0 -560 0 -32 -33z m678 9 c0 -2 -8 -10 -17 -17 -16 -13 -17
-12 -4 4 13 16 21 21 21 13z m150 -30 c0 -2 -19 -19 -42 -36 l-43 -32 40 36
c40 36 45 39 45 32z m30 -176 c-20 -13 -33 -13 -25 0 3 6 14 10 23 10 15 0 15
-2 2 -10z m75 -22 c11 -31 -46 -108 -100 -135 -34 -17 -27 -9 25 29 20 14 44
42 55 62 l20 37 -25 19 c-24 18 -24 19 -3 14 12 -4 25 -15 28 -26z m79 -190
c-16 -11 -54 -44 -84 -72 -31 -28 -23 -18 17 22 40 39 78 72 84 72 7 0 -1 -10
-17 -22z m199 7 c-3 -9 -8 -14 -10 -11 -3 3 -2 9 2 15 9 16 15 13 8 -4z m-49
-105 l31 -35 -33 30 c-32 28 -62 74 -62 92 1 4 8 -5 17 -22 8 -16 29 -46 47
-65z m29 72 c2 7 4 1 4 -14 1 -31 -11 -28 -29 5 -10 19 -9 20 4 9 13 -10 17
-10 21 0z m772 -184 c23 -76 34 -219 25 -323 -8 -95 -6 -117 5 -66 4 17 10 31
15 31 15 0 -43 -254 -60 -265 -4 -3 -30 26 -58 63 -65 86 -170 188 -248 241
-34 22 -64 41 -68 41 -3 0 -6 -68 -6 -152 0 -117 3 -155 14 -167 13 -15 4 -16
-100 -16 -111 0 -143 7 -85 18 38 8 41 26 41 273 l0 204 -26 10 c-14 6 -42 11
-62 12 -20 1 4 5 53 9 50 5 111 11 138 15 44 6 63 -5 37 -21 -5 -3 -10 -23
-10 -43 0 -48 54 -112 181 -213 69 -55 93 -69 99 -59 21 35 24 232 4 284 -7
18 -30 8 -83 -39 -26 -22 -31 -24 -20 -8 23 35 183 221 191 222 4 1 14 -23 23
-51z m-856 -298 c19 0 61 -39 61 -57 0 -7 4 -13 9 -13 12 0 7 -81 -7 -107 -7
-12 -22 -29 -33 -37 -12 -8 -18 -19 -14 -26 5 -8 2 -9 -11 -2 -11 5 -31 15
-46 20 -15 6 -34 22 -42 34 -18 27 -28 116 -14 124 5 3 13 17 18 30 5 13 16
24 25 24 8 0 15 8 15 17 0 13 3 14 12 5 7 -7 19 -12 27 -12z m366 -392 c129
-27 414 -74 693 -115 100 -15 112 -19 112 -36 0 -23 -75 -449 -118 -667 l-28
-145 -60 2 c-32 1 -160 20 -284 42 -325 58 -527 89 -678 103 -126 12 -133 14
-128 33 27 112 114 642 128 780 2 21 10 31 28 37 42 12 188 -2 335 -34z m-479
-30 c5 -8 2 -9 -10 -5 -14 6 -17 2 -16 -21 4 -61 0 -92 -14 -92 -10 0 -12 13
-9 52 4 65 29 99 49 66z m-746 -25 c0 -13 -3 -14 -12 -5 -23 23 -31 12 -26
-38 4 -41 2 -50 -11 -50 -13 0 -15 9 -13 50 4 50 -3 61 -26 38 -7 -7 -12 -8
-12 -2 0 19 13 24 57 24 34 0 43 -4 43 -17z m108 -35 c18 -18 15 -36 -9 -48
-24 -13 -49 2 -49 30 0 28 37 39 58 18z m82 -2 c0 -8 6 -16 13 -19 9 -3 9 -8
1 -17 -9 -9 -15 -5 -27 19 -13 26 -13 31 -1 31 8 0 14 -6 14 -14z m55 -16 c4
0 5 7 1 15 -3 9 0 15 10 15 13 0 12 -4 -2 -32 -16 -30 -17 -31 -30 -13 -8 10
-14 26 -14 34 1 14 3 13 14 -1 7 -10 17 -18 21 -18z m123 13 c2 -8 -5 -13 -18
-13 -13 0 -20 -5 -17 -12 2 -7 13 -12 23 -10 18 2 18 2 1 -9 -20 -12 -47 3
-47 25 0 31 48 46 58 19z m112 6 c0 -5 -7 -9 -16 -9 -12 0 -15 -6 -10 -25 5
-18 2 -25 -9 -25 -10 0 -15 10 -15 34 0 29 3 34 25 34 14 0 25 -4 25 -9z m149
-3 c22 -26 -10 -63 -44 -50 -15 6 -21 45 -8 57 11 12 40 8 52 -7z m-13 -251
c-46 -56 -60 -95 -52 -148 4 -30 3 -38 -4 -27 -5 8 -10 36 -10 61 0 47 12 69
69 132 39 43 37 32 -3 -18z m-143 -30 c-9 -19 -18 -33 -21 -31 -4 5 26 66 33
66 3 0 -3 -16 -12 -35z m204 -67 c-3 -8 -6 -5 -6 6 -1 11 2 17 5 13 3 -3 4
-12 1 -19z m-230 -35 c-3 -10 -5 -2 -5 17 0 19 2 27 5 18 2 -10 2 -26 0 -35z
m292 -6 c6 10 11 13 11 6 0 -6 -5 -15 -10 -18 -6 -4 -8 -16 -4 -28 7 -25 8
-26 -31 28 -27 39 -28 39 -3 17 25 -23 27 -23 37 -5z m-100 -177 c11 -24 11
-24 -3 -6 -9 11 -16 24 -16 30 0 12 5 7 19 -24z m-125 4 c3 -8 2 -12 -4 -9 -6
3 -10 10 -10 16 0 14 7 11 14 -7z"/>
<path d="M1738 1496 c-3 -30 -2 -57 5 -67 10 -16 12 -16 24 -1 15 21 17 82 2
82 -7 0 -9 -10 -5 -25 4 -14 3 -31 -1 -38 -5 -7 -10 11 -13 43 l-5 55 -7 -49z"/>
<path d="M1720 1385 c-10 -12 -10 -18 -1 -29 7 -8 15 -45 17 -83 6 -84 14 -95
14 -19 0 39 3 55 11 50 7 -4 9 -21 6 -40 -4 -21 -2 -34 5 -34 6 0 8 17 6 43
-3 25 1 53 9 70 15 31 11 57 -9 57 -9 0 -9 -3 -1 -11 12 -12 -2 -59 -17 -59
-16 0 -32 31 -27 50 6 24 4 25 -13 5z"/>
<path d="M1311 1375 c-26 -23 -31 -34 -31 -71 0 -41 8 -53 23 -37 4 3 19 8 33
9 30 3 54 21 54 39 0 8 4 15 10 17 11 4 4 15 -31 46 l-26 23 -32 -26z"/>
<path d="M1401 1298 c0 -9 -4 -25 -7 -35 -5 -14 -4 -15 5 -7 7 7 11 22 8 35
-2 13 -5 16 -6 7z"/>
<path d="M1340 1230 c-8 -5 -11 -12 -7 -16 4 -4 15 0 24 9 18 18 8 23 -17 7z"/>
<path d="M1750 792 c-66 -32 -99 -62 -126 -117 -22 -46 -26 -65 -22 -113 7
-94 62 -183 137 -218 45 -22 149 -29 195 -14 120 39 200 185 167 306 -15 55
-75 122 -135 150 -63 29 -163 32 -216 6z"/>
<path d="M572 919 c1 -13 8 -23 13 -21 15 3 12 35 -3 40 -9 3 -13 -3 -10 -19z"/>
<path d="M1085 930 c-4 -6 -1 -18 6 -26 11 -14 13 -14 21 0 15 26 -12 51 -27
26z"/>
<path d="M2285 2350 c10 -11 20 -20 23 -20 3 0 -3 9 -13 20 -10 11 -20 20 -23
20 -3 0 3 -9 13 -20z"/>
<path d="M2350 2346 c0 -2 8 -10 18 -17 15 -13 16 -12 3 4 -13 16 -21 21 -21
13z"/>
<path d="M480 1513 c-19 -48 -36 -91 -38 -95 -2 -5 33 -8 78 -8 74 0 82 2 76
18 -21 56 -72 172 -76 172 -3 0 -21 -39 -40 -87z"/>
<path d="M907 1507 c-5 -43 -4 -63 6 -77 13 -19 14 -19 26 4 9 17 10 35 3 67
l-10 44 -3 -55 -2 -55 -6 65 -6 65 -8 -58z"/>
<path d="M886 1384 c-3 -8 1 -28 9 -43 7 -15 12 -37 9 -47 -2 -10 0 -41 5 -69
l9 -50 3 70 2 70 6 -60 6 -60 8 47 c5 27 6 52 2 58 -3 5 1 23 10 39 15 30 12
61 -7 61 -5 0 -6 -5 -3 -11 11 -16 -4 -59 -20 -59 -16 0 -31 43 -20 59 3 6 2
11 -3 11 -6 0 -13 -7 -16 -16z"/>
<path d="M230 306 c0 -2 8 -10 18 -17 15 -13 16 -12 3 4 -13 16 -21 21 -21 13z"/>
<path d="M245 230 c10 -11 20 -20 23 -20 3 0 -3 9 -13 20 -10 11 -20 20 -23
20 -3 0 3 -9 13 -20z"/>
</g>
</svg>
